<svg data-name="Calque 1" xmlns="http://www.w3.org/2000/svg" viewBox="0 0 512 512"><path fill="#ffecd4" d="M0 0H512V512H0z"/><path fill="#cab292" d="M119.185 63.539H397.75600000000003V443.013H119.185z"/><path fill="#ec668d" d="M360.133 54.667L360.133 119.43 321.189 104.552 286.619 123.805 290.12 54.667 360.133 54.667z"/><path d="M304.802 181.87h-18.958V162.91a9.479 9.479 0 1 0-18.958 0v18.958h-18.958a9.479 9.479 0 0 0 0 18.958h18.958v56.874a9.479 9.479 0 0 0 18.958 0v-56.874h18.958a9.479 9.479 0 0 0 0-18.958z"/><path d="M380.633 49.164h-9.479a9.482 9.482 0 0 0-9.479-9.48h-75.831a9.482 9.482 0 0 0-9.48 9.48H153.139a47.449 47.449 0 0 0-47.395 47.394v312.806a47.449 47.449 0 0 0 47.395 47.395h227.495a28.472 28.472 0 0 0 28.437-28.437V77.601a28.472 28.472 0 0 0-28.437-28.437zm-85.31 9.479h56.873v51.015l-24.2-12.095a9.379 9.379 0 0 0-4.237-1.005 9.494 9.494 0 0 0-4.237.996l-24.2 12.104zM153.138 380.927h218.016v18.958a9.495 9.495 0 0 1-9.479 9.48H172.096a28.428 28.428 0 0 1-28.351-26.239l-.02-.464a27.96 27.96 0 0 1 9.413-1.735zm-28.437-9.46V96.558a28.492 28.492 0 0 1 18.958-26.816v293.185a47.064 47.064 0 0 0-18.958 8.758zm265.411 56.855a9.495 9.495 0 0 1-9.479 9.479H153.138a28.472 28.472 0 0 1-28.437-28.437 27.98 27.98 0 0 1 2.939-12.341 46.966 46.966 0 0 0 44.456 31.3h189.58a28.472 28.472 0 0 0 28.436-28.437zm0-104.269v28.437a9.495 9.495 0 0 1-9.479 9.479H162.617V68.122h113.748v56.873a9.479 9.479 0 0 0 13.716 8.484l33.679-16.844 33.678 16.835a9.407 9.407 0 0 0 4.237 1.005 9.468 9.468 0 0 0 9.48-9.48V68.123h9.478a9.495 9.495 0 0 1 9.48 9.479z"/></svg>